<svg width="200" height="200" viewBox="0 0 200 200" fill="none" xmlns="http://www.w3.org/2000/svg">
<path fill-rule="evenodd" clip-rule="evenodd" d="M126.287 100.144C126.287 114.583 114.582 126.288 100.144 126.288C85.7047 126.288 73.9998 114.583 73.9998 100.144C73.9998 85.705 85.7047 74.0001 100.144 74.0001C114.582 74.0001 126.287 85.705 126.287 100.144ZM118.444 100.144C118.444 110.251 110.251 118.445 100.144 118.445C90.0364 118.445 81.8429 110.251 81.8429 100.144C81.8429 90.0367 90.0364 81.8432 100.144 81.8432C110.251 81.8432 118.444 90.0367 118.444 100.144Z" fill="black"/>
<path fill-rule="evenodd" clip-rule="evenodd" d="M100.176 141.353C122.917 141.353 141.353 122.918 141.353 100.177C141.353 77.4354 122.917 59.0001 100.176 59.0001C77.4351 59.0001 58.9998 77.4354 58.9998 100.177C58.9998 122.918 77.4351 141.353 100.176 141.353ZM100.176 133.51C118.586 133.51 133.51 118.586 133.51 100.177C133.51 81.767 118.586 66.8432 100.176 66.8432C81.7667 66.8432 66.8429 81.767 66.8429 100.177C66.8429 118.586 81.7667 133.51 100.176 133.51Z" fill="black"/>
<path fill-rule="evenodd" clip-rule="evenodd" d="M155.764 99.8824C155.764 130.745 130.745 155.765 99.8821 155.765C69.0191 155.765 43.9998 130.745 43.9998 99.8824C43.9998 69.0194 69.0191 44.0001 99.8821 44.0001C130.745 44.0001 155.764 69.0194 155.764 99.8824ZM147.921 99.8824C147.921 126.414 126.413 147.922 99.8821 147.922C73.3508 147.922 51.8429 126.414 51.8429 99.8824C51.8429 73.3511 73.3508 51.8432 99.8821 51.8432C126.413 51.8432 147.921 73.3511 147.921 99.8824Z" fill="black"/>
<path fill-rule="evenodd" clip-rule="evenodd" d="M99.588 170.176C138.573 170.176 170.176 138.573 170.176 99.5882C170.176 60.6034 138.573 28.9999 99.588 28.9999C60.6032 28.9999 28.9998 60.6034 28.9998 99.5882C28.9998 138.573 60.6032 170.176 99.588 170.176ZM99.588 162.333C134.241 162.333 162.333 134.241 162.333 99.5882C162.333 64.935 134.241 36.8431 99.588 36.8431C64.9348 36.8431 36.8429 64.935 36.8429 99.5882C36.8429 134.241 64.9348 162.333 99.588 162.333Z" fill="black"/>
<path fill-rule="evenodd" clip-rule="evenodd" d="M184.935 99.9673C184.935 146.893 146.893 184.935 99.9673 184.935C53.0412 184.935 15 146.893 15 99.9673C15 53.0412 53.0412 15 99.9673 15C146.893 15 184.935 53.0412 184.935 99.9673ZM177.092 99.9673C177.092 142.562 142.562 177.092 99.9673 177.092C57.3728 177.092 22.8431 142.562 22.8431 99.9673C22.8431 57.3728 57.3728 22.8431 99.9673 22.8431C142.562 22.8431 177.092 57.3728 177.092 99.9673Z" fill="black"/>
<path fill-rule="evenodd" clip-rule="evenodd" d="M200 100C200 155.228 155.228 200 100 200C44.7715 200 0 155.228 0 100C0 44.7715 44.7715 0 100 0C155.228 0 200 44.7715 200 100ZM192.157 100C192.157 150.897 150.897 192.157 100 192.157C49.1032 192.157 7.84314 150.897 7.84314 100C7.84314 49.1032 49.1032 7.84314 100 7.84314C150.897 7.84314 192.157 49.1032 192.157 100Z" fill="black"/>
</svg>
